<?xml version='1.0' encoding='utf-8'?>
<svg xmlns="http://www.w3.org/2000/svg" enable-background="new 0 0 2116.985 1686.773" version="1.1" viewBox="0 0 2116.985 1686.773">
	<path d="m1978.1 161.69c-4.612-26.133-11.574-112.9-42.106-118.08-19.919-3.384-19.691 32.13-27.446 96.698-2.038 16.964-17.726 25.921-29.242 36.528-46.579 42.904-73.133 60.091-117.2 93.837-6.788 5.199-14.957 6.85-22.522 10.043-18.411 7.772-30.811-70.197-53.809-53.605-13.1 9.452-5.271 24.12 1.941 35.954 16.698 27.401 26.236 36.432 8.268 47.126-33.929 20.193-119.11 57.784-152.96 67.571-78.538 22.705-176.63 45.486-223.55 53.841-114.48 20.387-578.16 52.599-592.15 53.394-175.88 9.993-175.79 18.593-181.12 8.244-7.628-14.79-29.519-2.411-18.741-16.756 2.063-2.746 6.508-5.04 4.169-9.009-2.086-3.54-6.556-4.035-10.634-4.076-43.922-0.435-100.05 2.482-115.46 3.914-14.87 1.382-77.881 11.686-82.889 14.369-10.941 5.862-11.749 14.577-1.938 21.881 3.012 2.242 7.25 3.064 7.002 5.979-0.496 5.832-31.516 4.151-34.317 4.202-8.969 0.161-9.06-0.195-9.847-8.768-4.714-51.336 0-31.401-12.888-57.549-2.804-5.689-10.007-3.921-10.877 1.901-2.981 19.92 0.48 42.031 1.22 59.143 0.571 13.206-11.84 5.08-15.042 30.515-2.405 19.107 0.195 25.856-10.696 27.317-25.477 3.418-13.171-13.723-52.309-10.969-37.396 2.631-41.666-3.336-115 21.276-17.843 5.989-16.428 2.699-5.453 130.84 5.552 64.829 3.34 74.208 17.095 84.845 4.713 3.645 7.895 8.913 8.531 14.836 17.726 165.05 13.693 162.6 31.566 165.16 9.405 1.347 8.254 14.522 18.141 14.387 0.609-8e-3 2.273 2.745 2.235 3.507-0.384 7.791 3.001 15.806-0.953 23.35-3.369 6.428-0.311 10.368 2.193 13.74h46.746c3.631-12.885-1.514-8.951-2.073-34.238-0.262-11.872 7.302-6.501 9.215-10.767 3.234-7.205 9.931-6.735 16.122-8.221 9.294-2.231 16.77-0.688 24.928 4.868 9.73 6.625 20.989 11.034 31.691 16.187 10.627 5.117 8.865 9.126 15.552 39.839 7.623 35.008 39.465 22.8 57.642 21.233 28.984-2.496 25.486-5.55 31.255 15.772 5.26 19.437 11.713 22.931 32.026 18.351 78.403-17.679 74.164 12.829 80.245-28.669 3.856-26.309-10.131-15.335 91.641-25.297 11.454-1.121 8.255-6.671 18.548 55.418 4.044 24.424-12.326 11.529-15.49 22.996-1.559 5.648 1.683 9.649 4.836 13.397 7.792 9.264 13.332-6.741 15.505 3.59 7.015 33.345-0.611 58.336 27.552 57.151 50.38-2.121 57.651-16.452 72.303 19.665 1.285 3.166 251.3 418.6 257.37 426.26 6.473 8.176 14.57 9.978 24.114 7.66 5.984-1.453 11.556-3.963 17.008-6.833 64.972-34.215 67.411-54.274 112.19-119.33 4.411-6.41 8.773-13.475 8.673-21.256-0.229-17.887-24.758-30.594-34.476-29.353-4.333 0.553-9.673 7.592-14.598 3.829-7.701-5.884 4.309-21.716 8.631-25.862 3.301-3.165 6.467-6.328 9.676-9.593-1.55-4.337-0.94-2.63-2.49-6.966-19.426-12.496-34.089-32.65-30.283-67.891 0.199-1.847-1.09-2.697-2.614-3.758-28.023-19.51-35.077-43.379-36.077-67.351-0.09-2.151-0.936-3.184-2.899-4.068-28.337-12.755-37.426-37.055-34.491-68.888 0.167-1.81-0.749-2.93-2.293-3.89-33.605-20.886-37.166-44.758-36.158-67.824 0.085-1.935-0.288-3.804-2.193-4.154-37.244-6.85-46.744-72.273-47.173-72.881-2.893-4.098-2.624-5.762 1.106-9.249 21.526-20.126 41.892-25.513 56.262-45.109 11.364-15.498 26.729-6.723 111.93-12.082 133.32-8.384 411.06-21.115 549.58 1.598 141 23.12 304.92 99.636 369.71 153.84 26.628 22.278 23.996 108.43 47.864 108.94 25.873 0.549 30.096-51.132 30.914-69.02 12.019-263.15-31.027-760.2-80.739-1033.6z"/>
</svg>