<?xml version="1.0" standalone="no"?>
<!DOCTYPE svg PUBLIC "-//W3C//DTD SVG 20010904//EN"
 "http://www.w3.org/TR/2001/REC-SVG-20010904/DTD/svg10.dtd">
<svg version="1.0" xmlns="http://www.w3.org/2000/svg"
 width="4878.000000pt" height="4752.000000pt" viewBox="0 0 4878.000000 4752.000000"
 preserveAspectRatio="xMidYMid meet">

<g transform="translate(0.000000,4752.000000) scale(0.100000,-0.100000)"
fill="#000000" stroke="none">
<path d="M1640 46915 c-344 -47 -627 -176 -841 -383 -183 -176 -293 -387 -351
-675 l-23 -112 0 -22110 0 -22110 22 -110 c58 -283 161 -486 337 -661 50 -50
127 -115 170 -144 177 -119 426 -212 653 -245 98 -14 1445 -15 14073 -13
l13965 3 99 23 c475 110 780 329 959 688 73 145 120 333 137 544 8 97 10 6362
8 22120 l-3 21985 -23 118 c-66 341 -203 587 -431 768 -191 154 -390 241 -698
307 -72 15 -1104 16 -14018 18 -11394 2 -13957 0 -14035 -11z m19010 -115
c1636 -5 4322 -13 5968 -16 1645 -4 2991 -9 2989 -10 -9 -10 -21129 -35
-24167 -29 -2591 5 -3539 4 -3605 -5 -371 -46 -663 -176 -876 -389 -172 -173
-268 -356 -330 -636 l-22 -100 -7 -2045 c-4 -1125 -9 -6401 -10 -11725 -2
-5324 -6 -12513 -9 -15975 l-6 -6295 -8 9070 c-4 4989 -8 13082 -8 17985 -2
8291 0 8923 15 9023 21 134 64 281 115 392 117 253 343 473 615 600 52 25 100
45 106 45 5 0 10 4 10 9 0 8 102 43 180 63 179 44 91 42 2100 48 2460 8 13129
2 16950 -10z m9128 -1778 c10 -7 12 -3883 12 -19887 0 -10933 -3 -19882 -8
-19887 -13 -13 -28294 -10 -28306 2 -16 16 -8 39762 8 39772 15 10 28278 10
28294 0z"/>
<path d="M33290 34374 c-232 -34 -359 -83 -473 -185 -113 -101 -177 -230 -203
-409 -20 -143 -20 -32038 0 -32180 43 -297 200 -473 501 -564 l70 -21 7153 -3
c7077 -2 7155 -2 7250 18 274 56 464 230 529 485 17 67 18 742 18 16175 0
15644 -1 16107 -19 16175 -42 160 -143 306 -267 385 -61 40 -171 83 -270 107
-71 17 -372 18 -7169 19 -3902 1 -7106 0 -7120 -2z m10010 -132 l1965 -7
-1330 -7 c-731 -4 -3411 -9 -5955 -12 -4617 -5 -4625 -5 -4705 -25 -296 -76
-476 -277 -514 -576 -7 -54 -12 -3534 -17 -10528 -4 -5746 -8 -10446 -9
-10445 -3 3 -15 16320 -15 19158 0 971 3 1785 6 1810 10 89 36 176 80 267 84
176 233 289 458 350 53 15 159 18 806 24 869 7 6389 2 9230 -9z m4400 -7507
c3 -3602 9 -8011 13 -9796 7 -2352 6 -3249 -2 -3253 -8 -5 -11 -1307 -11
-4697 l0 -4689 -6822 0 -6821 0 -44 -26 c-24 -14 -48 -22 -55 -18 -7 5 -8 3
-3 -6 6 -10 4 -12 -8 -7 -9 3 -19 1 -23 -5 -4 -7 -3 -8 4 -4 7 4 12 2 12 -3 0
-14 -15 -14 -43 0 -20 9 -20 9 -5 -4 16 -13 16 -14 -2 -29 -22 -20 -35 -11
-17 11 10 14 10 14 -4 4 -9 -7 -20 -9 -25 -5 -4 4 -3 0 3 -8 13 -18 3 -42 -20
-46 -31 -4 -57 -16 -57 -25 0 -6 5 -7 12 -3 7 4 8 3 4 -4 -4 -7 -12 -12 -18
-12 -5 0 -21 -9 -35 -20 -14 -11 -29 -17 -33 -15 -5 3 -12 0 -16 -6 -5 -8 -3
-9 7 -4 12 8 12 6 0 -8 -7 -9 -17 -15 -21 -12 -4 3 -11 -2 -14 -10 -5 -13 -10
-14 -28 -4 -21 11 -22 11 -9 -5 12 -14 12 -16 -4 -10 -12 5 -16 4 -12 -3 9
-14 -19 -37 -33 -28 -5 3 -10 -1 -10 -9 0 -9 -6 -16 -14 -16 -8 0 -16 -3 -18
-7 -1 -5 -14 -16 -28 -25 -73 -51 -136 -94 -151 -103 -10 -5 -38 -25 -64 -43
-25 -18 -51 -30 -56 -27 -5 3 -7 0 -4 -7 3 -8 -25 -30 -70 -58 -42 -25 -89
-57 -105 -73 -27 -25 -42 -31 -63 -28 -4 0 -6 -4 -5 -11 2 -6 -7 -16 -18 -23
-12 -6 -29 -17 -37 -24 -9 -7 -22 -9 -28 -5 -7 4 -9 3 -6 -3 4 -6 -8 -20 -26
-32 -17 -11 -45 -30 -61 -40 -16 -11 -34 -17 -40 -14 -6 3 -8 3 -4 -1 8 -10
-14 -36 -24 -29 -12 7 -10 3317 2 3329 6 6 11 133 13 319 l2 310 3 -317 c1
-204 6 -318 12 -318 6 0 10 3 10 8 0 4 47 6 104 4 l104 -3 6 623 c15 1580 18
2691 5 2698 -8 6 -4 15 16 31 l27 24 -2 7535 c-1 4144 -2 9359 -1 11588 l1
4052 7328 -2 7327 -3 5 -6550z m-14776 -16721 c3 -8 2 -12 -4 -9 -6 3 -10 10
-10 16 0 14 7 11 14 -7z m-34 -8 c0 -2 -8 -10 -17 -17 -16 -13 -17 -12 -4 4
13 16 21 21 21 13z m-115 -91 c-16 -13 -34 -24 -39 -25 -6 0 5 11 24 25 44 32
54 32 15 0z"/>
<path d="M32754 6440 c0 -157 2 -221 3 -142 2 78 2 206 0 285 -1 78 -3 14 -3
-143z"/>
<path d="M32751 6124 c0 -11 3 -14 6 -6 3 7 2 16 -1 19 -3 4 -6 -2 -5 -13z"/>
<path d="M33850 4230 c-9 -6 -10 -10 -3 -10 6 0 15 5 18 10 8 12 4 12 -15 0z"/>
<path d="M33406 3908 c4 -5 0 -9 -7 -7 -8 1 -21 1 -29 0 -13 -1 -13 -3 -1 -10
9 -6 22 -6 32 -1 9 5 18 7 21 5 3 -3 5 1 5 8 0 8 -6 14 -13 14 -7 0 -11 -4 -8
-9z"/>
<path d="M33363 3865 c0 -8 4 -12 9 -9 5 3 6 10 3 15 -9 13 -12 11 -12 -6z"/>
<path d="M33075 3670 c-4 -6 -10 -8 -15 -5 -5 3 -11 1 -14 -4 -8 -13 22 -7 36
7 7 7 9 12 6 12 -4 0 -10 -5 -13 -10z"/>
<path d="M32805 3481 c-3 -5 0 -13 6 -17 7 -4 9 -3 5 4 -3 5 0 13 6 15 9 4 10
6 1 6 -6 1 -14 -3 -18 -8z"/>
</g>
</svg>
